<svg width="160" height="102" viewBox="0 0 160 102" fill="none" xmlns="http://www.w3.org/2000/svg">
<g clip-path="url(#clip0_603_3204)">
<mask id="mask0_603_3204" style="mask-type:luminance" maskUnits="userSpaceOnUse" x="60" y="0" width="101" height="97">
<path d="M60.9008 74.3537C64.5628 80.5915 69.7012 85.9672 76.0193 89.9374C82.5979 94.0742 90.1174 96.4577 97.8756 96.8779C105.627 97.2909 113.349 95.7332 120.325 92.3354C137.745 83.3808 151.764 68.7824 160.007 51.0109C145.619 19.9668 114.543 0 80.2096 0C75.4837 0 70.7868 0.376731 66.155 1.1157C73.3415 2.05029 80.3471 4.51353 86.6507 8.47645C100.727 17.3224 109.593 32.4858 110.425 49.0982C110.454 49.7358 110.483 50.3661 110.483 51.0036C110.483 67.7464 96.9276 81.316 80.2024 81.316C72.8639 81.316 66.1333 78.7006 60.8936 74.3537" fill="white"/>
</mask>
<g mask="url(#mask0_603_3204)">
<path d="M160 0H60.9009V97.2909H160V0Z" fill="url(#paint0_linear_603_3204)"/>
</g>
<mask id="mask1_603_3204" style="mask-type:luminance" maskUnits="userSpaceOnUse" x="92" y="12" width="69" height="83">
<path d="M114.695 94.6175C116.613 93.98 118.495 93.2193 120.326 92.3282C137.745 83.3663 151.764 68.7752 160.007 51.0036C152.314 34.413 139.852 20.981 124.668 12.0771C123.698 36.0068 118.704 51.3079 109.687 57.9732C107.682 66.4858 102.095 73.6148 94.6118 77.6791L92.9038 83.7503C99.0844 89.6258 106.705 93.2917 114.702 94.6248" fill="white"/>
</mask>
<g mask="url(#mask1_603_3204)">
<path d="M160 12.0771H92.8965V94.6248H160V12.0771Z" fill="url(#paint1_linear_603_3204)"/>
</g>
<mask id="mask2_603_3204" style="mask-type:luminance" maskUnits="userSpaceOnUse" x="60" y="12" width="101" height="85">
<path d="M60.9009 74.3537C64.5629 80.5915 69.7013 85.9672 76.0194 89.9373C82.598 94.0741 90.1175 96.4577 97.8757 96.8779C105.627 97.2908 113.349 95.7332 120.326 92.3354C137.745 83.3735 151.764 68.7824 160.007 51.0108C152.314 34.4202 139.851 20.9883 124.668 12.0844C133.41 38.6656 120.043 67.4783 94.1196 77.9471C89.9582 80.1061 85.2251 81.3232 80.217 81.3232C72.8784 81.3232 66.1479 78.7078 60.9081 74.3609" fill="white"/>
</mask>
<g mask="url(#mask2_603_3204)">
<path d="M160 12.0771H60.9009V97.2909H160V12.0771Z" fill="url(#paint2_linear_603_3204)"/>
</g>
<mask id="mask3_603_3204" style="mask-type:luminance" maskUnits="userSpaceOnUse" x="94" y="12" width="35" height="66">
<path d="M124.661 12.0771C133.403 38.6584 120.036 67.4711 94.1123 77.9399C107.4 73.9698 118.357 64.4863 124.197 51.8947C130.038 39.3032 130.211 24.8063 124.661 12.0771Z" fill="white"/>
</mask>
<g mask="url(#mask3_603_3204)">
<path d="M133.403 12.0771H94.1123V77.9399H133.403V12.0771Z" fill="url(#paint3_linear_603_3204)"/>
</g>
<mask id="mask4_603_3204" style="mask-type:luminance" maskUnits="userSpaceOnUse" x="66" y="32" width="93" height="64">
<path d="M158.4 51.0036C155.274 44.3891 151.337 38.2382 146.712 32.6742C126.586 83.714 99.7936 99.3484 66.3433 79.5845C69.3105 83.1417 72.835 86.228 76.7865 88.7057C83.1553 92.7049 90.4431 95.0232 97.9481 95.4217C105.446 95.8274 112.929 94.3132 119.66 91.0386C136.588 82.3303 150.251 68.2101 158.4 51.0036Z" fill="white"/>
</mask>
<g mask="url(#mask4_603_3204)">
<path d="M158.4 32.6742H66.3433V99.3484H158.4V32.6742Z" fill="url(#paint4_linear_603_3204)"/>
</g>
<mask id="mask5_603_3204" style="mask-type:luminance" maskUnits="userSpaceOnUse" x="0" y="7" width="68" height="83">
<path d="M45.3049 7.38245L45.218 7.41143L45.1312 7.44041H45.1167L44.972 7.49836H44.9575L44.8706 7.53459L44.7838 7.56357L44.7114 7.5853H44.6897L44.6029 7.62153L44.516 7.65051L44.4292 7.67949L44.3423 7.70846L44.2555 7.73744L44.1686 7.76642L44.0818 7.7954L44.0456 7.80989L43.9949 7.83163L43.9081 7.86785L43.8212 7.90407L43.7344 7.9403H43.7127L43.6403 7.97652L43.5535 8.01275L43.4666 8.04897L43.3798 8.0852L43.2929 8.12142L43.2061 8.15764L43.1192 8.19387L43.0469 8.22285H43.0324L42.9455 8.26632L42.8587 8.30254L42.7718 8.33876L42.685 8.37499L42.5982 8.41121L42.5113 8.44744L42.4245 8.48366L42.3159 8.52713L42.1639 8.59233L42.0771 8.62856L42.0481 8.64305L41.9902 8.67203L41.9034 8.70825L41.8165 8.74448L41.7297 8.7807H41.7225L41.6428 8.81692L41.4692 8.88937L41.3895 8.9256L41.129 9.04151L41.0639 9.07049H41.0422L40.7816 9.2009L40.731 9.22263L40.6948 9.23712L40.6079 9.28059L40.5211 9.32406L40.4342 9.36753L40.4053 9.38202L40.3474 9.411L40.1013 9.52692H40.0868L40.0724 9.54141L40 9.57763L39.9132 9.6211L39.7395 9.70079C22.2544 18.6337 8.24317 33.2248 0 51.0036C7.69314 67.5943 20.1556 81.0262 35.3392 89.9301C26.6546 63.5082 39.8046 34.8911 65.417 24.2702L67.1033 18.2642C60.9227 12.3886 53.302 8.72274 45.3049 7.38969" fill="white"/>
</mask>
<g mask="url(#mask5_603_3204)">
<path d="M67.1033 7.38245H0V89.9301H67.1033V7.38245Z" fill="url(#paint5_linear_603_3204)"/>
</g>
<mask id="mask6_603_3204" style="mask-type:luminance" maskUnits="userSpaceOnUse" x="0" y="5" width="100" height="98">
<path d="M99.099 27.6536C95.4369 21.4158 90.2985 16.0401 83.9805 12.0699C77.4018 7.93314 69.8824 5.54959 62.1241 5.12939C54.3731 4.70919 46.651 6.27408 39.6743 9.6719C22.2544 18.6338 8.24317 33.2249 0 51.0037C14.3876 82.0333 45.4568 102.007 79.7974 102.007C84.5232 102.007 89.2202 101.631 93.852 100.892C86.6655 99.957 79.6599 97.4938 73.3562 93.5308C59.2799 84.6849 50.4143 69.5215 49.5821 52.9091C49.5531 52.2715 49.5242 51.6412 49.5242 51.0037C49.5242 34.2609 63.0794 20.6913 79.8046 20.6913C87.1431 20.6913 93.8737 23.3067 99.1134 27.6536" fill="white"/>
</mask>
<g mask="url(#mask6_603_3204)">
<path d="M99.099 4.71643H0V102.007H99.099V4.71643Z" fill="#EF4B25"/>
</g>
<mask id="mask7_603_3204" style="mask-type:luminance" maskUnits="userSpaceOnUse" x="0" y="7" width="68" height="83">
<path d="M45.3049 7.38245C43.387 8.01999 41.5053 8.7807 39.6743 9.67181C22.2544 18.6337 8.24317 33.2248 0 51.0036C7.69314 67.5943 20.1556 81.0262 35.3392 89.9301C36.309 66.0004 41.3027 50.6993 50.3202 44.0341C52.3249 35.5214 57.9121 28.3925 65.3953 24.3281L67.1033 18.2569C60.9227 12.3814 53.302 8.7155 45.3049 7.38245Z" fill="white"/>
</mask>
<g mask="url(#mask7_603_3204)">
<path d="M67.1033 7.38245H0V89.9301H67.1033V7.38245Z" fill="#CE2E27"/>
</g>
<mask id="mask8_603_3204" style="mask-type:luminance" maskUnits="userSpaceOnUse" x="0" y="5" width="100" height="85">
<path d="M99.099 27.6536C95.4369 21.4158 90.2985 16.0401 83.9805 12.0699C77.4018 7.93314 69.8824 5.54959 62.1241 5.12939C54.3731 4.71643 46.651 6.27407 39.6743 9.6719C22.2544 18.6338 8.24317 33.2249 0 51.0037C7.69314 67.5943 20.1556 81.0263 35.3392 89.9302C26.5967 63.3489 39.9638 34.5362 65.8875 24.0674C70.0489 21.9084 74.782 20.6913 79.7901 20.6913C87.1286 20.6913 93.8592 23.3067 99.099 27.6536Z" fill="white"/>
</mask>
<g mask="url(#mask8_603_3204)">
<path d="M99.099 4.71643H0V89.9302H99.099V4.71643Z" fill="#DB3D26"/>
</g>
<mask id="mask9_603_3204" style="mask-type:luminance" maskUnits="userSpaceOnUse" x="31" y="24" width="35" height="66">
<path d="M35.3394 89.9302C26.5969 63.3489 39.964 34.5362 65.8876 24.0674C52.6001 28.0376 41.643 37.521 35.8026 50.1126C29.9622 62.7041 29.7885 77.201 35.3394 89.9302Z" fill="white"/>
</mask>
<g mask="url(#mask9_603_3204)">
<path style="mix-blend-mode:soft-light" d="M65.8874 24.0674H26.5967V89.9302H65.8874V24.0674Z" fill="url(#paint6_linear_603_3204)"/>
</g>
<mask id="mask10_603_3204" style="mask-type:luminance" maskUnits="userSpaceOnUse" x="1" y="6" width="93" height="64">
<path d="M1.59961 51.0037C4.72608 57.6182 8.66312 63.7691 13.2877 69.3331C33.4143 18.2933 60.2064 2.65891 93.6568 22.4228C90.6895 18.8656 87.165 15.7793 83.2135 13.3016C76.8448 9.30242 69.5569 6.98407 62.0519 6.58561C54.5542 6.1799 47.0709 7.69407 40.3403 10.9687C23.4125 19.6698 9.7487 33.79 1.59961 51.0037Z" fill="white"/>
</mask>
<g mask="url(#mask10_603_3204)">
<path style="mix-blend-mode:soft-light" d="M93.6568 2.65894H1.59961V69.3331H93.6568V2.65894Z" fill="url(#paint7_linear_603_3204)"/>
</g>
<mask id="mask11_603_3204" style="mask-type:luminance" maskUnits="userSpaceOnUse" x="58" y="29" width="44" height="44">
<path d="M68.5362 67.6161C68.8329 67.4494 69.2092 67.4494 69.5132 67.6451C69.9474 67.9276 70.0704 68.5072 69.7882 68.9419C69.5059 69.3766 68.927 69.4997 68.4927 69.2172C68.1743 69.0143 68.0223 68.6521 68.073 68.3043C65.9959 66.8409 64.1794 65.0007 62.7319 62.8562C61.393 60.8784 60.3654 58.6397 59.743 56.2055C59.4028 56.1258 59.1133 55.8577 59.041 55.4882C58.9324 54.9811 59.2581 54.4812 59.7647 54.3725C60.2713 54.2638 60.7706 54.5899 60.8792 55.097C60.9516 55.452 60.8213 55.7997 60.5608 56.0171C61.1615 58.3499 62.1385 60.4944 63.4267 62.3925C64.8162 64.4428 66.5532 66.2033 68.5434 67.6161M87.2081 70.1663C87.2443 69.8257 87.4542 69.5215 87.7871 69.3838C88.2648 69.1882 88.8148 69.42 89.0102 69.9054C89.2056 70.3836 88.974 70.9342 88.4891 71.1298C88.1417 71.2675 87.7582 71.1878 87.4976 70.9487C85.1311 71.7963 82.6125 72.231 80.0578 72.2021C77.6478 72.1731 75.2016 71.7311 72.8278 70.8328C72.5673 71.0646 72.1837 71.1443 71.8363 70.9994C71.3587 70.7966 71.1343 70.2459 71.337 69.7678C71.5396 69.2896 72.0896 69.065 72.5673 69.2679C72.9002 69.4128 73.1101 69.7243 73.139 70.0576C75.4187 70.9197 77.7636 71.3399 80.0723 71.3689C82.5184 71.3979 84.9357 70.9777 87.2081 70.1663ZM99.4028 58.1833C99.164 57.937 99.0699 57.5747 99.1857 57.2342C99.3522 56.7416 99.8805 56.4735 100.373 56.6401C100.865 56.8068 101.133 57.3357 100.966 57.8283C100.85 58.1833 100.539 58.4224 100.184 58.4658C99.4535 60.4002 98.4475 62.2259 97.1738 63.885C95.9796 65.4426 94.5539 66.8554 92.9111 68.0652C92.9617 68.413 92.817 68.7752 92.5058 68.9853C92.0788 69.2751 91.4926 69.1665 91.2031 68.7318C90.9136 68.3043 91.0221 67.7175 91.4564 67.4277C91.7603 67.2248 92.1367 67.2176 92.4334 67.3842C94.0039 66.2251 95.3717 64.8775 96.5152 63.3851C97.7383 61.7912 98.7008 60.038 99.4028 58.1905V58.1833ZM85.008 31.0514C84.7981 31.3195 84.4508 31.4571 84.0961 31.3919C83.5895 31.2905 83.2566 30.7978 83.3507 30.2907C83.452 29.7836 83.9442 29.4503 84.4508 29.5445C84.8199 29.6169 85.0949 29.8922 85.1817 30.2327C90.6241 31.5078 95.1039 34.797 97.9988 39.1439C100.843 43.4183 102.153 48.7143 101.321 54.1334C101.603 54.3435 101.762 54.6985 101.69 55.068C101.588 55.5752 101.096 55.9084 100.59 55.8142C100.083 55.7128 99.7502 55.2202 99.8443 54.713C99.9094 54.358 100.17 54.09 100.496 53.9885C101.284 48.7867 100.032 43.7009 97.304 39.6003C94.5249 35.4273 90.226 32.2758 85.008 31.0442V31.0514ZM64.1504 58.3282C64.4399 58.3282 64.7222 58.4948 64.8669 58.7701C65.0695 59.1686 64.9103 59.6612 64.5123 59.8641C64.1142 60.067 63.6221 59.9076 63.4195 59.5091C63.2747 59.2193 63.3109 58.886 63.4991 58.6397C62.5799 56.6474 62.0154 54.4884 61.8562 52.257C61.7042 50.1995 61.9069 48.084 62.4931 45.9902C62.2687 45.7801 62.1747 45.4541 62.276 45.1498C62.4135 44.7224 62.8694 44.4906 63.2964 44.6282C63.7234 44.7659 63.955 45.2223 63.8175 45.6497C63.7234 45.9468 63.4701 46.1496 63.1806 46.2003C62.6234 48.2072 62.428 50.2357 62.5727 52.2063C62.7247 54.3363 63.2675 56.4083 64.1504 58.3209V58.3282ZM77.0182 68.3116C77.1846 68.0725 77.4813 67.9348 77.7925 67.9783C78.234 68.0435 78.5452 68.4492 78.4801 68.8912C78.4149 69.3331 78.0097 69.6446 77.5682 69.5794C77.2498 69.536 76.9964 69.3041 76.9096 69.0143C74.7746 68.6303 72.7048 67.8624 70.8014 66.7394C69.0066 65.6745 67.371 64.2907 65.9814 62.5882C65.6847 62.6534 65.3663 62.5447 65.1709 62.2839C64.9031 61.9289 64.9755 61.4145 65.3301 61.1464C65.6847 60.8784 66.1985 60.9508 66.4663 61.3058C66.6545 61.5594 66.6762 61.8782 66.5532 62.1462C67.8848 63.7763 69.4553 65.1021 71.1705 66.1236C72.987 67.2031 74.9773 67.9348 77.0254 68.3043L77.0182 68.3116ZM91.3044 64.6167C91.232 64.3342 91.3189 64.0226 91.5505 63.8125C91.8834 63.5155 92.3972 63.5445 92.6939 63.885C92.9907 64.2182 92.9617 64.7326 92.6288 65.0297C92.3827 65.247 92.0498 65.2905 91.7748 65.1673C90.3997 66.2975 88.851 67.2248 87.1864 67.9204C85.6232 68.5724 83.9442 69.0071 82.1928 69.2027C82.0842 69.4852 81.8164 69.6953 81.4907 69.7171C81.042 69.7461 80.6585 69.4128 80.6223 68.9636C80.5933 68.5144 80.9262 68.1305 81.375 68.0942C81.6862 68.0725 81.9684 68.2319 82.1276 68.4782C83.7994 68.2898 85.4061 67.8696 86.9042 67.2466C88.5036 66.5801 89.9872 65.6889 91.3044 64.6095V64.6167ZM92.238 38.1079C91.963 38.2165 91.6445 38.1731 91.4129 37.963C91.0728 37.6659 91.0366 37.1588 91.3333 36.8183C91.6301 36.4778 92.1367 36.4416 92.4768 36.7386C92.7229 36.9487 92.8097 37.282 92.7229 37.5717C96.2402 40.8754 98.1725 45.273 98.462 49.772C98.7442 54.1986 97.4415 58.7194 94.4815 62.4143C94.6046 62.6896 94.5611 63.0301 94.3512 63.2764C94.0545 63.6169 93.5479 63.6531 93.2078 63.3561C92.8676 63.0591 92.8314 62.5519 93.1282 62.2114C93.3308 61.9723 93.642 61.8854 93.9315 61.9506C96.7685 58.4006 98.0205 54.0537 97.7455 49.8083C97.4705 45.4903 95.6105 41.2739 92.238 38.0934V38.1079ZM64.6498 41.1362C67.1973 37.0936 71.0909 34.3623 75.4115 33.2104C79.7683 32.0439 84.5593 32.4714 88.822 34.7608C89.0753 34.5869 89.4082 34.5651 89.6905 34.7318C90.0741 34.9564 90.2043 35.4563 89.98 35.8402C89.7556 36.2242 89.2563 36.3546 88.8727 36.13C88.6049 35.9706 88.4602 35.6808 88.4746 35.3911C84.3856 33.1959 79.79 32.7829 75.6069 33.9059C71.4672 35.0143 67.7256 37.6297 65.2794 41.5129C65.4386 41.7593 65.4531 42.0853 65.2939 42.3533C65.0695 42.7446 64.5774 42.875 64.1866 42.6504C63.7958 42.4258 63.6655 41.9331 63.8899 41.5419C64.0491 41.2594 64.3531 41.1145 64.657 41.1362H64.6498ZM65.6847 49.6634C65.8946 49.7865 66.0321 50.0184 66.0176 50.2792C65.9959 50.6487 65.6847 50.9385 65.3084 50.9167C64.9393 50.895 64.6498 50.5835 64.6715 50.2067C64.686 49.9387 64.8524 49.7141 65.0913 49.6199C65.2577 47.8087 65.7426 46.0192 66.5532 44.3529C67.2986 42.8098 68.319 41.3753 69.6073 40.1147C69.5349 39.8756 69.6073 39.6003 69.8027 39.4192C70.0777 39.1729 70.5047 39.1946 70.7507 39.4699C70.9968 39.7452 70.9751 40.1726 70.7001 40.419C70.5047 40.5928 70.2441 40.6363 70.0125 40.5494C68.7822 41.7593 67.8052 43.1358 67.0887 44.6065C66.3143 46.2003 65.8439 47.9174 65.6847 49.6561V49.6634ZM70.7942 62.168C71.0113 62.0665 71.2791 62.0883 71.4889 62.2476C71.7784 62.4795 71.8363 62.8997 71.6047 63.1895C71.3731 63.4793 70.9534 63.5372 70.6639 63.3054C70.454 63.1388 70.3672 62.8707 70.4178 62.6244C69.0428 61.458 67.8703 60.0525 66.9729 58.4514C66.1262 56.9444 65.5255 55.2636 65.2288 53.4669C64.9899 53.3872 64.8018 53.1771 64.7728 52.9091C64.7294 52.5396 64.9899 52.2063 65.359 52.1556C65.7281 52.1121 66.061 52.3729 66.1117 52.7424C66.1406 53.0032 66.0249 53.2423 65.8222 53.38C66.1045 55.1042 66.6834 56.7053 67.494 58.1543C68.3552 59.683 69.477 61.0378 70.7942 62.1535V62.168ZM82.5836 65.4499C82.6487 65.218 82.8441 65.0297 83.0974 64.9717C83.4593 64.8993 83.8139 65.1311 83.8935 65.4933C83.9659 65.8556 83.7343 66.2106 83.3724 66.2903C83.1119 66.341 82.8513 66.2396 82.6994 66.0367C81.2447 66.2758 79.7466 66.3048 78.263 66.1091C76.8662 65.928 75.4839 65.5441 74.145 64.9572C73.9496 65.1166 73.6746 65.1528 73.4285 65.0369C73.0956 64.8775 72.9581 64.4718 73.1173 64.1385C73.2765 63.8053 73.6818 63.6676 74.0147 63.827C74.2463 63.9429 74.3838 64.1748 74.3911 64.4139C75.672 64.9717 76.9965 65.3412 78.3281 65.5151C79.7538 65.7034 81.1868 65.6745 82.5836 65.4499ZM94.2427 46.7944C94.0039 46.7582 93.794 46.5916 93.7071 46.3452C93.5841 45.9975 93.7723 45.6135 94.1197 45.4904C94.467 45.3672 94.8506 45.5556 94.9736 45.9033C95.0605 46.1569 94.9881 46.4249 94.8072 46.6061C95.9651 50.4386 95.5309 54.4015 93.8736 57.7559C92.2452 61.0523 89.43 63.7618 85.7752 65.1891C85.7462 65.4426 85.5798 65.6672 85.3265 65.7542C84.9791 65.8773 84.5955 65.6889 84.4725 65.3412C84.3494 64.9934 84.5376 64.6095 84.885 64.4863C85.1311 64.3994 85.3916 64.4646 85.5653 64.6312C89.0681 63.2619 91.7676 60.661 93.3308 57.495C94.923 54.2783 95.3355 50.482 94.2282 46.8017L94.2427 46.7944ZM73.168 37.521C76.678 35.6736 80.6006 35.3331 84.183 36.2967C87.8016 37.2675 91.0583 39.5641 93.1716 42.9764C93.4249 42.9547 93.671 43.0851 93.8085 43.3169C93.9894 43.6429 93.8808 44.0486 93.5552 44.237C93.2295 44.4181 92.8242 44.3094 92.636 43.9834C92.5058 43.7588 92.5275 43.4908 92.6577 43.2879C90.6313 40.0133 87.4976 37.8108 84.031 36.8835C80.6006 35.9634 76.83 36.2894 73.4647 38.0571C73.4719 38.2962 73.3561 38.5353 73.1318 38.6657C72.8133 38.8541 72.4008 38.7382 72.2127 38.4194C72.0245 38.1006 72.1403 37.6877 72.4587 37.4993C72.6903 37.3616 72.9726 37.3834 73.1752 37.5283L73.168 37.521ZM72.6541 42.0491C72.7048 42.2374 72.6541 42.4475 72.4949 42.5852C72.2706 42.788 71.9304 42.7663 71.7278 42.5489C71.5251 42.3244 71.5468 41.9838 71.764 41.781C71.9232 41.6361 72.1475 41.6071 72.3357 41.6796C73.4647 40.7377 74.7602 39.9988 76.1642 39.5134C77.4669 39.0642 78.8636 38.8251 80.3183 38.8396C80.4124 38.6585 80.6078 38.5426 80.8249 38.557C81.1217 38.5715 81.3532 38.8251 81.3388 39.1294C81.3243 39.4264 81.071 39.6583 80.767 39.6438C80.5571 39.6365 80.3835 39.5061 80.3038 39.325C78.9143 39.3105 77.5754 39.5351 76.3234 39.9698C74.9773 40.4407 73.7325 41.1507 72.6469 42.0491H72.6541ZM68.4421 52.0904C68.623 52.1556 68.7678 52.3222 68.7895 52.5323C68.8257 52.8294 68.6158 53.0974 68.319 53.1409C68.0223 53.1771 67.7545 52.967 67.7111 52.67C67.6822 52.4526 67.7907 52.257 67.9572 52.1411C67.8342 50.6921 67.9717 49.2214 68.3697 47.8015C68.746 46.4612 69.3612 45.1571 70.2152 43.9689C70.1211 43.7878 70.1356 43.5632 70.2731 43.3893C70.454 43.1503 70.8014 43.114 71.033 43.2952C71.2718 43.4763 71.308 43.8168 71.1271 44.0559C70.9968 44.2225 70.7942 44.2877 70.5988 44.2587C69.781 45.4034 69.1947 46.6495 68.8329 47.9319C68.4493 49.2939 68.319 50.7066 68.4348 52.0976L68.4421 52.0904ZM73.2982 60.69C73.4719 60.5958 73.689 60.5958 73.8627 60.7117C74.116 60.8784 74.1812 61.2116 74.0147 61.4652C73.8483 61.7188 73.5154 61.784 73.2621 61.6174C73.0811 61.5014 72.9943 61.2913 73.0232 61.0885C72.0534 60.393 71.185 59.5526 70.454 58.5963C69.7665 57.6979 69.1875 56.6909 68.7605 55.5897C68.5579 55.5679 68.3769 55.4303 68.3046 55.2274C68.2032 54.9449 68.3552 54.6333 68.6375 54.5391C68.9197 54.4377 69.2309 54.5899 69.325 54.8724C69.3902 55.068 69.3395 55.2781 69.202 55.423C69.6145 56.4735 70.1573 57.4371 70.8231 58.2992C71.5251 59.2193 72.3574 60.0235 73.2838 60.69H73.2982ZM90.559 56.7126C90.4432 56.5532 90.4142 56.3431 90.5083 56.1547C90.6386 55.8867 90.9642 55.7708 91.232 55.9012C91.4998 56.0316 91.6156 56.3576 91.4853 56.6257C91.3912 56.8213 91.1958 56.9299 90.9932 56.9299C89.4661 59.7772 86.9693 61.784 84.1179 62.7548C81.3098 63.7039 78.1689 63.6387 75.274 62.3708C75.1148 62.5012 74.8904 62.5302 74.695 62.436C74.4272 62.3056 74.3114 61.9796 74.4417 61.7115C74.572 61.4435 74.8977 61.3276 75.1654 61.458C75.3536 61.5521 75.4622 61.7333 75.4694 61.9289C78.2485 63.146 81.2664 63.204 83.9586 62.2984C86.6943 61.371 89.097 59.4439 90.559 56.7126ZM83.8284 39.3974C86.8825 40.3465 89.3142 42.3896 90.805 44.9832C92.3104 47.5986 92.8604 50.7718 92.1222 53.9161C92.2742 54.0465 92.3465 54.2638 92.2886 54.4739C92.209 54.7637 91.9123 54.9304 91.6228 54.8507C91.3333 54.771 91.1669 54.4739 91.2465 54.1842C91.3044 53.9813 91.4636 53.8364 91.6518 53.8002C92.361 50.7791 91.8327 47.7362 90.378 45.2223C88.9451 42.7373 86.6147 40.774 83.6836 39.8611C83.5533 40.006 83.3435 40.0712 83.1408 40.0205C82.8513 39.9408 82.6776 39.6438 82.7573 39.354C82.8369 39.0642 83.1336 38.8903 83.4231 38.97C83.633 39.028 83.7777 39.1946 83.8139 39.3974H83.8284ZM59.0916 50.0836C59.3087 44.5485 61.6391 39.5568 65.2939 35.8982C68.9921 32.1961 74.0437 29.856 79.638 29.6821C79.79 29.3634 80.1157 29.146 80.492 29.1533C81.0131 29.1533 81.4256 29.5807 81.4256 30.1023C81.4256 30.624 80.9986 31.0369 80.4775 31.0369C80.1157 31.0369 79.8045 30.8268 79.6525 30.5225C74.2825 30.6964 69.4336 32.9423 65.8873 36.4923C62.3773 40.006 60.141 44.7948 59.9239 50.1053C60.2206 50.2647 60.4305 50.5762 60.4305 50.9385C60.4305 51.4601 60.0107 51.8803 59.4897 51.8803C58.9686 51.8803 58.5488 51.4601 58.5488 50.9385C58.5488 50.5617 58.7659 50.2357 59.0844 50.0908L59.0916 50.0836Z" fill="white"/>
</mask>
<g mask="url(#mask11_603_3204)">
<path d="M102.153 29.146H58.5562V72.231H102.153V29.146Z" fill="url(#paint8_linear_603_3204)"/>
</g>
<path fill-rule="evenodd" clip-rule="evenodd" d="M80.1301 45.4396C83.0177 45.4396 85.3553 47.7797 85.3553 50.6704C85.3553 53.5611 83.0177 55.9012 80.1301 55.9012C77.2424 55.9012 74.9048 53.5611 74.9048 50.6704C74.9048 47.7797 77.2424 45.4396 80.1301 45.4396ZM80.1301 40.687C85.6376 40.687 90.1029 45.1571 90.1029 50.6704C90.1029 56.1837 85.6376 60.6538 80.1301 60.6538C74.6226 60.6538 70.1572 56.1837 70.1572 50.6704C70.1572 45.1571 74.6226 40.687 80.1301 40.687Z" fill="url(#paint9_linear_603_3204)"/>
</g>
<defs>
<linearGradient id="paint0_linear_603_3204" x1="145.829" y1="81.316" x2="21.5983" y2="-33.1884" gradientUnits="userSpaceOnUse">
<stop stop-color="#2C469D"/>
<stop offset="0.17" stop-color="#2D4EA2"/>
<stop offset="0.44" stop-color="#3266B2"/>
<stop offset="0.78" stop-color="#398DCD"/>
<stop offset="1" stop-color="#3FABE1"/>
</linearGradient>
<linearGradient id="paint1_linear_603_3204" x1="131.796" y1="58.4731" x2="28.3233" y2="-40.4403" gradientUnits="userSpaceOnUse">
<stop stop-color="#2C469D"/>
<stop offset="0.14" stop-color="#334E96"/>
<stop offset="0.36" stop-color="#466784"/>
<stop offset="0.65" stop-color="#658E67"/>
<stop offset="0.98" stop-color="#91C53F"/>
<stop offset="1" stop-color="#94C93D"/>
</linearGradient>
<linearGradient id="paint2_linear_603_3204" x1="36.2799" y1="-16.3443" x2="178.359" y2="119.419" gradientUnits="userSpaceOnUse">
<stop stop-color="#2C469D"/>
<stop offset="0.35" stop-color="#3265B2"/>
<stop offset="1" stop-color="#3FABE1"/>
</linearGradient>
<linearGradient id="paint3_linear_603_3204" x1="140.38" y1="94.6103" x2="99.5168" y2="18.6262" gradientUnits="userSpaceOnUse">
<stop stop-color="#2C469D"/>
<stop offset="0.26" stop-color="#3664B0"/>
<stop offset="0.84" stop-color="#4FB3E0"/>
<stop offset="1" stop-color="#57CAEF"/>
</linearGradient>
<linearGradient id="paint4_linear_603_3204" x1="29.6289" y1="-8.26636" x2="162.426" y2="110.685" gradientUnits="userSpaceOnUse">
<stop stop-color="#2C469D"/>
<stop offset="0.45" stop-color="#3475BD"/>
<stop offset="1" stop-color="#3FABE1"/>
</linearGradient>
<linearGradient id="paint5_linear_603_3204" x1="28.2034" y1="43.5342" x2="131.676" y2="142.44" gradientUnits="userSpaceOnUse">
<stop stop-color="#1B3B1C"/>
<stop offset="0.13" stop-color="#22431E"/>
<stop offset="0.34" stop-color="#375C23"/>
<stop offset="0.61" stop-color="#58832C"/>
<stop offset="0.92" stop-color="#87BA39"/>
<stop offset="1" stop-color="#94C93D"/>
</linearGradient>
<linearGradient id="paint6_linear_603_3204" x1="19.62" y1="7.38978" x2="60.4829" y2="83.3739" gradientUnits="userSpaceOnUse">
<stop offset="0.13" stop-color="#D66E27"/>
<stop offset="0.26" stop-color="#F5832D"/>
<stop offset="0.89" stop-color="#FFDE72"/>
</linearGradient>
<linearGradient id="paint7_linear_603_3204" x1="130.378" y1="110.266" x2="-2.42589" y2="-8.68495" gradientUnits="userSpaceOnUse">
<stop offset="0.26" stop-color="#F5832D"/>
<stop offset="0.47" stop-color="#D66E27"/>
<stop offset="0.89" stop-color="#FFDE72"/>
</linearGradient>
<linearGradient id="paint8_linear_603_3204" x1="58.5562" y1="50.6849" x2="102.146" y2="50.6849" gradientUnits="userSpaceOnUse">
<stop stop-color="#2C469D"/>
<stop offset="0.45" stop-color="#3475BD"/>
<stop offset="1" stop-color="#3FABE1"/>
</linearGradient>
<linearGradient id="paint9_linear_603_3204" x1="70.15" y1="50.6776" x2="90.1029" y2="50.6776" gradientUnits="userSpaceOnUse">
<stop stop-color="#2C469D"/>
<stop offset="0.45" stop-color="#3475BD"/>
<stop offset="1" stop-color="#3FABE1"/>
</linearGradient>
<clipPath id="clip0_603_3204">
<rect width="160" height="102" fill="white"/>
</clipPath>
</defs>
</svg>
